<svg width="170" height="170" viewBox="0 0 170 170" fill="none" xmlns="http://www.w3.org/2000/svg">
<rect width="170" height="170" rx="15.125" fill="white"/>
<path d="M48.632 82H41.56V60.56H48.632C55.384 60.56 58.712 64.496 58.712 71.28C58.712 78.064 55.384 82 48.632 82ZM48.344 62.416H43.672V80.144H48.344C53.656 80.144 56.568 77.488 56.568 71.28C56.568 65.072 53.656 62.416 48.344 62.416ZM69.1408 82.32C64.8528 82.32 61.8768 79.408 61.8768 74.32C61.8768 69.328 64.7248 66.32 68.8848 66.32C73.0768 66.32 75.7008 69.136 75.7008 73.776C75.7008 74.16 75.6368 74.544 75.6048 74.8H63.8928C64.0208 78.64 66.1008 80.56 69.1408 80.56C72.2448 80.56 73.5888 78.864 74.2608 77.36L75.5408 78.864C74.4528 80.752 72.4048 82.32 69.1408 82.32ZM68.8848 68.048C66.0688 68.048 64.2128 69.808 63.9248 73.264H73.7808C73.5888 69.808 71.7008 68.048 68.8848 68.048ZM85.0655 82.32C81.9295 82.32 78.9855 80.912 78.0575 77.904L79.6255 76.72C80.1055 78.8 82.0255 80.528 85.1295 80.528C87.1775 80.528 88.5215 79.696 88.5215 78.096C88.5215 76.496 87.1455 75.92 85.0655 75.44L82.9855 74.96C80.7775 74.416 78.5055 73.392 78.5055 70.64C78.5055 67.984 80.6175 66.32 83.7855 66.32C87.0495 66.32 89.1935 67.952 89.9615 70.128L88.3615 71.312C87.6575 69.232 86.0575 68.08 83.6575 68.08C81.8015 68.08 80.4895 68.944 80.4895 70.544C80.4895 72.144 81.6415 72.72 83.8815 73.264L85.9295 73.776C89.1295 74.576 90.4095 75.888 90.4095 78.064C90.4095 81.008 87.9135 82.32 85.0655 82.32ZM96.0708 63.888H93.9588V60.56H96.0708V63.888ZM96.0708 82H93.9588V66.64H96.0708V82ZM106.505 77.264C105.321 77.264 104.265 77.008 103.369 76.56C102.889 77.136 102.409 77.936 102.409 78.672C102.409 79.536 102.921 80.048 104.585 80.048H109.353C112.041 80.048 113.705 81.136 113.705 83.376C113.705 86.224 110.761 88.272 105.833 88.272C101.929 88.272 99.4965 86.96 99.4965 84.848C99.4965 83.248 101.033 82.256 102.249 81.776C101.193 81.488 100.681 80.752 100.681 79.824C100.681 78.576 101.641 77.296 102.921 76.304C101.449 75.344 100.553 73.744 100.553 71.792C100.553 68.592 102.953 66.32 106.505 66.32C107.625 66.32 108.617 66.544 109.481 66.928L110.729 63.216L112.937 64.048L110.185 67.344C111.625 68.336 112.457 69.904 112.457 71.792C112.457 74.992 110.089 77.264 106.505 77.264ZM106.505 75.632C108.809 75.632 110.441 74.128 110.441 71.792C110.441 69.456 108.809 67.952 106.505 67.952C104.233 67.952 102.601 69.456 102.601 71.792C102.601 74.128 104.233 75.632 106.505 75.632ZM105.833 86.608C109.545 86.608 111.753 85.392 111.753 83.632C111.753 82.416 110.889 81.872 109.065 81.872H102.825C102.057 82.352 101.225 83.248 101.225 84.24C101.225 85.744 102.921 86.608 105.833 86.608ZM118.665 82H116.553V66.64H118.665V70.928C119.209 68.432 120.969 66.32 124.041 66.32C127.081 66.32 129.129 68.112 129.129 71.632V82H127.017V72.112C127.017 69.616 125.865 68.08 123.209 68.08C119.977 68.08 118.665 70.448 118.665 73.104V82Z" fill="#6202FF"/>
<path d="M49.208 53H41.112V31.56H49.208C55.832 31.56 59.416 35.656 59.416 42.28C59.416 48.904 55.864 53 49.208 53ZM48.76 34.76H44.728V49.8H48.792C53.208 49.8 55.64 47.656 55.64 42.28C55.64 36.904 53.208 34.76 48.76 34.76ZM69.7375 53.32C65.0975 53.32 62.0575 50.088 62.0575 45.224C62.0575 40.328 65.0975 37.096 69.4815 37.096C74.1535 37.096 76.7455 40.2 76.7455 44.52C76.7455 45.096 76.6815 45.768 76.6175 46.088H65.4815C65.6735 48.872 67.3055 50.376 69.7695 50.376C72.4895 50.376 73.7055 48.968 74.2815 47.656L76.4895 49.96C75.3055 51.752 73.1935 53.32 69.7375 53.32ZM69.4815 39.976C67.2735 39.976 65.8015 41.256 65.5135 43.784H73.5135C73.2575 41.32 71.8495 39.976 69.4815 39.976ZM87.4908 53H82.9148L77.3788 37.416H81.3468L84.0028 45.896L85.2828 50.664L86.5308 45.896L89.1548 37.416H93.0588L87.4908 53Z" fill="#222677"/>
<rect x="39" y="101" width="45.375" height="45.375" rx="22.6875" fill="#FFD6FD"/>
<rect x="57.9062" y="101" width="45.375" height="45.375" rx="22.6875" fill="url(#paint0_linear_702_27)"/>
<defs>
<linearGradient id="paint0_linear_702_27" x1="80.5937" y1="101" x2="110.547" y2="165.828" gradientUnits="userSpaceOnUse">
<stop stop-color="#6202FF"/>
<stop offset="0.9999" stop-color="#FA02FF" stop-opacity="0.395833"/>
<stop offset="1" stop-color="#6202FF" stop-opacity="0"/>
</linearGradient>
</defs>
</svg>
